<svg width="42" height="40" viewBox="0 0 42 40" fill="none" xmlns="http://www.w3.org/2000/svg">
<path d="M21 0.434814L24.0303 4.00898L28.1824 1.62159L29.7255 5.95144L34.4985 5.03878L34.3682 9.60207L39.1865 10.2742L37.3986 14.5205L41.681 16.6964L38.451 20.1136L41.681 23.5308L37.3986 25.7067L39.1865 29.953L34.3682 30.6252L34.4985 35.1885L29.7255 34.2758L28.1824 38.6057L24.0303 36.2183L21 39.7925L17.9697 36.2183L13.8176 38.6057L12.2745 34.2758L7.50146 35.1885L7.63176 30.6252L2.81347 29.953L4.60143 25.7067L0.319036 23.5308L3.549 20.1136L0.319036 16.6964L4.60143 14.5205L2.81347 10.2742L7.63176 9.60207L7.50146 5.03878L12.2745 5.95144L13.8176 1.62159L17.9697 4.00898L21 0.434814Z" fill="#FEB95F"/>
</svg>
