<svg width="21" height="17" viewBox="0 0 21 17" fill="none" xmlns="http://www.w3.org/2000/svg">
<path d="M20.0631 8.14775C20.0631 8.37899 19.9476 8.63236 19.6846 8.84027C19.4187 9.05049 19.0376 9.18184 18.6224 9.18184C18.2073 9.18184 17.8262 9.05049 17.5603 8.84027C17.2973 8.63236 17.1818 8.37899 17.1818 8.14775V2.01139C17.1818 1.78015 17.2973 1.52678 17.5603 1.31886C17.8262 1.10864 18.2073 0.977295 18.6224 0.977295C19.0376 0.977295 19.4187 1.10864 19.6846 1.31886L19.9933 0.928348L19.6846 1.31886C19.9476 1.52678 20.0631 1.78015 20.0631 2.01139V8.14775Z" fill="#98C1D9" stroke="#98C1D9"/>
<path d="M14.8879 2.76514V2.76468C14.8882 2.50549 14.7977 2.23976 14.6081 1.99695C14.4171 1.75238 14.1323 1.54099 13.7745 1.39945L14.8879 2.76514ZM14.8879 2.76514V8.31854C14.8879 9.06199 14.5838 9.80334 13.9902 10.429L12.179 12.3373L12.179 12.3374C11.4288 13.128 11.0067 14.1092 11.0067 15.136V15.8182C11.0067 15.9138 10.9594 16.0371 10.8177 16.1491C10.6731 16.2635 10.4566 16.3409 10.2129 16.3409C9.62617 16.3409 9.08061 16.1557 8.69336 15.8496C8.30904 15.5458 8.12543 15.1623 8.12543 14.7955V10.7046V10.2046H7.62543H3.01968H3.01952C2.69427 10.2047 2.37565 10.1476 2.08758 10.0399C1.79937 9.93215 1.55402 9.77845 1.36502 9.5963C1.1764 9.41451 1.05042 9.211 0.985076 9.00425L0.508322 9.15493L0.985075 9.00425C0.920089 8.79864 0.913954 8.587 0.966067 8.38084C0.966073 8.38082 0.966079 8.38079 0.966085 8.38077L2.51857 2.24448L2.51858 2.24441C2.60023 1.92151 2.82862 1.60282 3.20285 1.36036C3.57775 1.11747 4.06159 0.977135 4.57202 0.977295H4.57218L11.5778 0.977295L11.578 0.977295C12.3214 0.977041 13.0517 1.11385 13.7099 1.37388C13.7099 1.37389 13.7099 1.3739 13.7099 1.37391L13.7744 1.3994L14.8879 2.76514Z" fill="#98C1D9" stroke="#98C1D9"/>
</svg>
