<svg width="21" height="21" viewBox="0 0 21 21" fill="none" xmlns="http://www.w3.org/2000/svg">
<circle cx="10.5" cy="10.5" r="10.5" fill="white"/>
<path d="M10.5 0C4.72303 0 0 4.72303 0 10.5C0 16.277 4.72303 21 10.5 21C16.277 21 21 16.277 21 10.5C21 4.72303 16.3275 0 10.5 0ZM15.33 15.1725C15.1207 15.4868 14.7518 15.5925 14.4375 15.3805C11.97 13.86 8.87316 13.545 5.19553 14.383C4.83 14.4913 4.515 14.2288 4.40869 13.9105C4.30631 13.545 4.56619 13.2307 4.88053 13.125C8.87316 12.2325 12.3388 12.598 15.0662 14.28C15.4357 14.4375 15.4862 14.8575 15.3293 15.1725H15.33ZM16.5907 12.2843C16.3275 12.6538 15.8557 12.8113 15.4862 12.5475C12.6532 10.8143 8.34619 10.292 5.04131 11.3407C4.62066 11.443 4.14553 11.235 4.04316 10.8137C3.9375 10.3937 4.14553 9.92184 4.56619 9.81619C8.40131 8.66053 13.1243 9.24131 16.3787 11.2343C16.6963 11.3918 16.8538 11.9175 16.5907 12.2837V12.2843ZM16.697 9.345C13.3337 7.34803 7.7175 7.14 4.515 8.13816C3.98934 8.295 3.46566 7.98066 3.30816 7.50553C3.15131 6.9825 3.46566 6.45619 3.9375 6.29869C7.66697 5.19553 13.8082 5.40684 17.6951 7.71684C18.167 7.98 18.3232 8.60934 18.0607 9.08119C17.7975 9.45066 17.1682 9.60684 16.6963 9.34434L16.697 9.345Z" fill="#1DB954"/>
</svg>
