<svg width="21" height="17" viewBox="0 0 21 17" fill="none" xmlns="http://www.w3.org/2000/svg">
<path d="M0.981445 9.17044C0.981445 9.05334 1.01037 8.93314 1.07205 8.81544C1.1341 8.69702 1.22955 8.58098 1.35991 8.47792C1.4904 8.37477 1.65113 8.28851 1.83502 8.2283C2.0188 8.16812 2.21854 8.13635 2.42207 8.13635C2.6256 8.13635 2.82534 8.16812 3.00912 8.2283C3.19301 8.28851 3.35374 8.37477 3.48423 8.47792C3.61459 8.58098 3.71004 8.69702 3.77209 8.81543C3.83377 8.93314 3.8627 9.05334 3.8627 9.17044V15.3068C3.86269 15.538 3.74724 15.7914 3.48423 15.9993C3.21829 16.2096 2.83727 16.3409 2.42207 16.3409C2.00687 16.3409 1.62585 16.2096 1.35991 15.9993C1.0969 15.7914 0.981445 15.538 0.981445 15.3068V9.17044Z" stroke="#FEB95F"/>
<path d="M6.15625 14.5531V14.5534C6.1561 14.8127 6.24667 15.0785 6.43648 15.3213M6.15625 14.5531L6.43648 15.3213M6.15625 14.5531V8.99968C6.15625 8.25626 6.4604 7.51494 7.05392 6.88934C7.05394 6.88932 7.05396 6.88929 7.05398 6.88927L8.86516 4.98093L8.86523 4.98086C9.61533 4.19024 10.0375 3.20904 10.0375 2.18218V1.50002C10.0375 1.40441 10.0848 1.2811 10.2265 1.16909C10.3711 1.05476 10.5876 0.977295 10.8313 0.977295C11.418 0.977295 11.9636 1.16252 12.3508 1.46864C12.7351 1.77245 12.9188 2.15589 12.9188 2.52275V6.61366V7.11366H13.4188H18.0245C18.0245 7.11366 18.0245 7.11366 18.0245 7.11366C18.3496 7.11369 18.6681 7.17087 18.956 7.2786C19.2441 7.3864 19.4893 7.54011 19.6782 7.72223C19.8667 7.90399 19.9926 8.10745 20.0579 8.31415L20.5346 8.16354L20.0579 8.31415C20.1228 8.51973 20.1289 8.73133 20.0768 8.93746L18.5243 15.0737L18.5243 15.0738C18.4427 15.3967 18.2143 15.7154 17.84 15.9579C17.4651 16.2008 16.9813 16.3411 16.4709 16.3409H16.4707H9.46388C9.46384 16.3409 9.4638 16.3409 9.46376 16.3409C8.72159 16.3407 7.99267 16.2039 7.33562 15.9443C7.3356 15.9443 7.33557 15.9443 7.33555 15.9443M6.15625 14.5531L7.33555 15.9443M6.43648 15.3213C6.62769 15.5659 6.9128 15.7773 7.27083 15.9187L7.27093 15.9188L7.33555 15.9443M6.43648 15.3213L7.33555 15.9443" stroke="#FEB95F"/>
</svg>
