<svg width="18" height="18" viewBox="0 0 18 18" fill="none" xmlns="http://www.w3.org/2000/svg">
<path d="M17.4838 16.2245L11.9831 10.7465C12.8367 9.64754 13.2984 8.30387 13.2984 6.8906C13.2984 5.19889 12.6355 3.61264 11.4366 2.41663C10.2378 1.22062 8.64069 0.5625 6.94408 0.5625C5.24746 0.5625 3.6504 1.22273 2.45155 2.41663C1.25057 3.61053 0.589722 5.19889 0.589722 6.8906C0.589722 8.5802 1.25269 10.1707 2.45155 11.3646C3.6504 12.5606 5.24535 13.2187 6.94408 13.2187C8.36322 13.2187 9.71034 12.7589 10.8139 11.9109L16.3146 17.3868C16.3308 17.4029 16.3499 17.4156 16.371 17.4243C16.3921 17.433 16.4147 17.4375 16.4375 17.4375C16.4603 17.4375 16.4829 17.433 16.504 17.4243C16.5251 17.4156 16.5442 17.4029 16.5603 17.3868L17.4838 16.4692C17.5 16.4532 17.5128 16.4341 17.5215 16.4131C17.5302 16.3921 17.5347 16.3696 17.5347 16.3469C17.5347 16.3242 17.5302 16.3017 17.5215 16.2807C17.5128 16.2597 17.5 16.2406 17.4838 16.2245ZM10.2992 10.2318C9.40109 11.1241 8.21071 11.6156 6.94408 11.6156C5.67744 11.6156 4.48706 11.1241 3.58898 10.2318C2.69301 9.33746 2.19949 8.152 2.19949 6.8906C2.19949 5.6292 2.69301 4.44162 3.58898 3.54936C4.48706 2.6571 5.67744 2.16562 6.94408 2.16562C8.21071 2.16562 9.40321 2.65499 10.2992 3.54936C11.1951 4.44373 11.6887 5.6292 11.6887 6.8906C11.6887 8.152 11.1951 9.33957 10.2992 10.2318Z" fill="#FFF4EC"/>
</svg>
